# xmcd
#
# Track frame offsets:
#	150
#	11934
#	26553
#	44410
#	58699
#	71816
#	86854
#	96871
#	112592
#	128445
#	143008
#	157893
#
# Disc length: 2289 seconds
#
# Revision: 2
# Processed by: cddbd v1.5.2PL0 Copyright (c) Steve Scherf et al.
# Submitted via: EZCDAudioConverter 8.0.2.1
#
DISCID=9908ef0c
DTITLE=ROSA and ROSINHA - VOL.02 [CD 398422498-2) CHANTECLER
DYEAR=1998
DGENRE=Sertaneja
TTITLE0=O VIRA (BY GILMAR SINISTRO)
TTITLE1=SEM VERGONHA (BY GILMAR SINISTRO)
TTITLE2=FRICOTE (BY GILMAR SINISTRO)
TTITLE3=TENTEI FAZER UMA MUSICA (BY GILMAR SINISTRO)
TTITLE4=POUT-POURRI: PEPINO - PINTINHO - O BOI VAI ATRÁS (BY GILMAR SINISTRO)
TTITLE5=RODELINHA (BY GILMAR SINISTRO)
TTITLE6=DE PAPO PRO AR (BY GILMAR SINISTRO)
TTITLE7=OH! DARCY (BY GILMAR SINISTRO)
TTITLE8=EMPRESÁRIO DO ANO (PINTINHO) (BY GILMAR SINISTRO)
TTITLE9=PULGUINHA (BY GILMAR SINISTRO)
TTITLE10=PISA NA BARATA (BY GILMAR SINISTRO)
TTITLE11=BOBEOU... A GENTE PIMBA (BY GILMAR SINISTRO)
EXTD=
EXTT0=
EXTT1=
EXTT2=
EXTT3=
EXTT4=
EXTT5=
EXTT6=
EXTT7=
EXTT8=
EXTT9=
EXTT10=
EXTT11=
PLAYORDER=
